<mxfile host="app.diagrams.net" modified="2022-02-12T01:57:26.727Z" agent="5.0 (Windows)" etag="zcsj9z2moOl7VcuXN9Z4" version="16.5.6" type="github">
  <diagram id="R2lEEEUBdFMjLlhIrx00" name="Page-1">
    <mxGraphModel dx="755" dy="416" grid="1" gridSize="10" guides="1" tooltips="1" connect="1" arrows="1" fold="1" page="1" pageScale="1" pageWidth="850" pageHeight="1100" math="0" shadow="0" extFonts="Permanent Marker^https://fonts.googleapis.com/css?family=Permanent+Marker">
      <root>
        <mxCell id="0" />
        <mxCell id="1" parent="0" />
        <mxCell id="wimU3H7NXZCb9OBvoZlh-6" value="&lt;table dir=&quot;ltr&quot; style=&quot;table-layout: fixed ; font-size: 10pt ; font-family: &amp;quot;arial&amp;quot; ; width: 0px ; border-collapse: collapse ; border: none&quot; cellspacing=&quot;0&quot; cellpadding=&quot;0&quot; border=&quot;1&quot;&gt;&lt;colgroup&gt;&lt;col width=&quot;191&quot;&gt;&lt;/colgroup&gt;&lt;tbody&gt;&lt;tr style=&quot;height: 21px&quot;&gt;&lt;td style=&quot;border-top: 1px solid #000000 ; border-right: 1px solid #000000 ; border-bottom: 1px solid #000000 ; border-left: 1px solid #000000 ; overflow: hidden ; padding: 2px 3px 2px 3px ; vertical-align: bottom ; font-weight: bold ; text-align: center&quot;&gt;Floor&lt;/td&gt;&lt;/tr&gt;&lt;tr style=&quot;height: 21px&quot;&gt;&lt;td style=&quot;overflow: hidden ; padding: 2px 3px 2px 3px ; vertical-align: bottom&quot;&gt;id&lt;/td&gt;&lt;/tr&gt;&lt;tr style=&quot;height: 21px&quot;&gt;&lt;td style=&quot;overflow: hidden ; padding: 2px 3px 2px 3px ; vertical-align: bottom&quot;&gt;name&lt;/td&gt;&lt;/tr&gt;&lt;tr style=&quot;height: 21px&quot;&gt;&lt;td style=&quot;overflow: hidden ; padding: 2px 3px 2px 3px ; vertical-align: bottom&quot;&gt;sortSequence&lt;/td&gt;&lt;/tr&gt;&lt;tr style=&quot;height: 21px&quot;&gt;&lt;td style=&quot;overflow: hidden ; padding: 2px 3px 2px 3px ; vertical-align: bottom&quot;&gt;floorPlan&lt;/td&gt;&lt;/tr&gt;&lt;tr style=&quot;height: 21px&quot;&gt;&lt;td style=&quot;overflow: hidden ; padding: 2px 3px 2px 3px ; vertical-align: bottom&quot;&gt;currentFloorPlan&lt;/td&gt;&lt;/tr&gt;&lt;tr style=&quot;height: 21px&quot;&gt;&lt;td style=&quot;overflow: hidden ; padding: 2px 3px 2px 3px ; vertical-align: bottom&quot;&gt;timeblockWindowInMilliseconds&lt;/td&gt;&lt;/tr&gt;&lt;tr style=&quot;height: 21px&quot;&gt;&lt;td style=&quot;overflow: hidden ; padding: 2px 3px 2px 3px ; vertical-align: bottom&quot;&gt;customer&lt;/td&gt;&lt;/tr&gt;&lt;tr style=&quot;height: 21px&quot;&gt;&lt;td style=&quot;overflow: hidden ; padding: 2px 3px 2px 3px ; vertical-align: bottom&quot;&gt;customerId&lt;/td&gt;&lt;/tr&gt;&lt;tr style=&quot;height: 21px&quot;&gt;&lt;td style=&quot;overflow: hidden ; padding: 2px 3px 2px 3px ; vertical-align: bottom&quot;&gt;location&lt;/td&gt;&lt;/tr&gt;&lt;tr style=&quot;height: 21px&quot;&gt;&lt;td style=&quot;overflow: hidden ; padding: 2px 3px 2px 3px ; vertical-align: bottom&quot;&gt;locationId&lt;/td&gt;&lt;/tr&gt;&lt;tr style=&quot;height: 21px&quot;&gt;&lt;td style=&quot;overflow: hidden ; padding: 2px 3px 2px 3px ; vertical-align: bottom&quot;&gt;installedSensors&lt;/td&gt;&lt;/tr&gt;&lt;tr style=&quot;height: 21px&quot;&gt;&lt;td style=&quot;overflow: hidden ; padding: 2px 3px 2px 3px ; vertical-align: bottom&quot;&gt;entrySensorInstallations&lt;/td&gt;&lt;/tr&gt;&lt;tr style=&quot;height: 21px&quot;&gt;&lt;td style=&quot;overflow: hidden ; padding: 2px 3px 2px 3px ; vertical-align: bottom&quot;&gt;quoteId&lt;/td&gt;&lt;/tr&gt;&lt;tr style=&quot;height: 21px&quot;&gt;&lt;td style=&quot;overflow: hidden ; padding: 2px 3px 2px 3px ; vertical-align: bottom&quot;&gt;overlays&lt;/td&gt;&lt;/tr&gt;&lt;tr style=&quot;height: 21px&quot;&gt;&lt;td style=&quot;overflow: hidden ; padding: 2px 3px 2px 3px ; vertical-align: bottom&quot;&gt;spaces&lt;/td&gt;&lt;/tr&gt;&lt;tr style=&quot;height: 21px&quot;&gt;&lt;td style=&quot;overflow: hidden ; padding: 2px 3px 2px 3px ; vertical-align: bottom&quot;&gt;liveFrom&lt;/td&gt;&lt;/tr&gt;&lt;tr style=&quot;height: 21px&quot;&gt;&lt;td style=&quot;overflow: hidden ; padding: 2px 3px 2px 3px ; vertical-align: bottom&quot;&gt;overrideSettings&lt;/td&gt;&lt;/tr&gt;&lt;tr style=&quot;height: 21px&quot;&gt;&lt;td style=&quot;overflow: hidden ; padding: 2px 3px 2px 3px ; vertical-align: bottom&quot;&gt;weekActiveTimeRules&lt;/td&gt;&lt;/tr&gt;&lt;tr style=&quot;height: 21px&quot;&gt;&lt;td style=&quot;overflow: hidden ; padding: 2px 3px 2px 3px ; vertical-align: bottom&quot;&gt;dateActiveTimeRules&lt;/td&gt;&lt;/tr&gt;&lt;tr style=&quot;height: 21px&quot;&gt;&lt;td style=&quot;overflow: hidden ; padding: 2px 3px 2px 3px ; vertical-align: bottom&quot;&gt;startDate&lt;/td&gt;&lt;/tr&gt;&lt;tr style=&quot;height: 21px&quot;&gt;&lt;td style=&quot;overflow: hidden ; padding: 2px 3px 2px 3px ; vertical-align: bottom&quot;&gt;endDate&lt;/td&gt;&lt;/tr&gt;&lt;tr style=&quot;height: 21px&quot;&gt;&lt;td style=&quot;overflow: hidden ; padding: 2px 3px 2px 3px ; vertical-align: bottom&quot;&gt;created&lt;/td&gt;&lt;/tr&gt;&lt;tr style=&quot;height: 21px&quot;&gt;&lt;td style=&quot;overflow: hidden ; padding: 2px 3px 2px 3px ; vertical-align: bottom&quot;&gt;updated&lt;/td&gt;&lt;/tr&gt;&lt;tr style=&quot;height: 21px&quot;&gt;&lt;td style=&quot;overflow: hidden ; padding: 2px 3px 2px 3px ; vertical-align: bottom&quot;&gt;floorplanBytes&lt;/td&gt;&lt;/tr&gt;&lt;tr style=&quot;height: 21px&quot;&gt;&lt;td style=&quot;overflow: hidden ; padding: 2px 3px 2px 3px ; vertical-align: bottom&quot;&gt;floorPlanUrl&lt;/td&gt;&lt;/tr&gt;&lt;tr style=&quot;height: 21px&quot;&gt;&lt;td style=&quot;overflow: hidden ; padding: 2px 3px 2px 3px ; vertical-align: bottom&quot;&gt;scale&lt;/td&gt;&lt;/tr&gt;&lt;tr style=&quot;height: 21px&quot;&gt;&lt;td style=&quot;overflow: hidden ; padding: 2px 3px 2px 3px ; vertical-align: bottom&quot;&gt;isScaleDefined&lt;/td&gt;&lt;/tr&gt;&lt;tr style=&quot;height: 21px&quot;&gt;&lt;td style=&quot;overflow: hidden ; padding: 2px 3px 2px 3px ; vertical-align: bottom&quot;&gt;currentInstalledSensors&lt;/td&gt;&lt;/tr&gt;&lt;tr style=&quot;height: 21px&quot;&gt;&lt;td style=&quot;overflow: hidden ; padding: 2px 3px 2px 3px ; vertical-align: bottom&quot;&gt;spaceGroups&lt;/td&gt;&lt;/tr&gt;&lt;tr style=&quot;height: 21px&quot;&gt;&lt;td style=&quot;overflow: hidden ; padding: 2px 3px 2px 3px ; vertical-align: bottom&quot;&gt;totalSpaces&lt;/td&gt;&lt;/tr&gt;&lt;tr style=&quot;height: 21px&quot;&gt;&lt;td style=&quot;overflow: hidden ; padding: 2px 3px 2px 3px ; vertical-align: bottom&quot;&gt;totalSpaceGroups&lt;/td&gt;&lt;/tr&gt;&lt;tr style=&quot;height: 21px&quot;&gt;&lt;td style=&quot;overflow: hidden ; padding: 2px 3px 2px 3px ; vertical-align: bottom&quot;&gt;activeSensors&lt;/td&gt;&lt;/tr&gt;&lt;tr style=&quot;height: 21px&quot;&gt;&lt;td style=&quot;overflow: hidden ; padding: 2px 3px 2px 3px ; vertical-align: bottom&quot;&gt;activeEntrySensors&lt;/td&gt;&lt;/tr&gt;&lt;tr style=&quot;height: 21px&quot;&gt;&lt;td style=&quot;overflow: hidden ; padding: 2px 3px 2px 3px ; vertical-align: bottom&quot;&gt;latestSightingCount&lt;/td&gt;&lt;/tr&gt;&lt;tr style=&quot;height: 21px&quot;&gt;&lt;td style=&quot;overflow: hidden ; padding: 2px 3px 2px 3px ; vertical-align: bottom&quot;&gt;totalSensors&lt;/td&gt;&lt;/tr&gt;&lt;tr style=&quot;height: 21px&quot;&gt;&lt;td style=&quot;overflow: hidden ; padding: 2px 3px 2px 3px ; vertical-align: bottom&quot;&gt;totalActiveSensors&lt;/td&gt;&lt;/tr&gt;&lt;tr style=&quot;height: 21px&quot;&gt;&lt;td style=&quot;overflow: hidden ; padding: 2px 3px 2px 3px ; vertical-align: bottom&quot;&gt;totalActiveAreaSensors&lt;/td&gt;&lt;/tr&gt;&lt;tr style=&quot;height: 21px&quot;&gt;&lt;td style=&quot;overflow: hidden ; padding: 2px 3px 2px 3px ; vertical-align: bottom&quot;&gt;totalActiveEntrySensors&lt;/td&gt;&lt;/tr&gt;&lt;tr style=&quot;height: 21px&quot;&gt;&lt;td style=&quot;overflow: hidden ; padding: 2px 3px 2px 3px ; vertical-align: bottom&quot;&gt;totalInactiveSensors&lt;/td&gt;&lt;/tr&gt;&lt;tr style=&quot;height: 21px&quot;&gt;&lt;td style=&quot;overflow: hidden ; padding: 2px 3px 2px 3px ; vertical-align: bottom&quot;&gt;totalActiveAndOnlineSensors&lt;/td&gt;&lt;/tr&gt;&lt;tr style=&quot;height: 21px&quot;&gt;&lt;td style=&quot;overflow: hidden ; padding: 2px 3px 2px 3px ; vertical-align: bottom&quot;&gt;totalActiveAndOfflineSensors&lt;/td&gt;&lt;/tr&gt;&lt;tr style=&quot;height: 21px&quot;&gt;&lt;td style=&quot;overflow: hidden ; padding: 2px 3px 2px 3px ; vertical-align: bottom&quot;&gt;resolvedSettings&lt;/td&gt;&lt;/tr&gt;&lt;tr style=&quot;height: 21px&quot;&gt;&lt;td style=&quot;overflow: hidden ; padding: 2px 3px 2px 3px ; vertical-align: bottom&quot;&gt;spaceGroupTimeline&lt;/td&gt;&lt;/tr&gt;&lt;tr style=&quot;height: 21px&quot;&gt;&lt;td style=&quot;overflow: hidden ; padding: 2px 3px 2px 3px ; vertical-align: bottom&quot;&gt;floorSpaceTimeline&lt;/td&gt;&lt;/tr&gt;&lt;tr style=&quot;height: 21px&quot;&gt;&lt;td style=&quot;overflow: hidden ; padding: 2px 3px 2px 3px ; vertical-align: bottom&quot;&gt;floorPlanTimeline&lt;/td&gt;&lt;/tr&gt;&lt;/tbody&gt;&lt;/table&gt;" style="text;whiteSpace=wrap;html=1;" vertex="1" parent="1">
          <mxGeometry x="270" y="40" width="190" height="980" as="geometry" />
        </mxCell>
        <mxCell id="wimU3H7NXZCb9OBvoZlh-7" value="&lt;table dir=&quot;ltr&quot; style=&quot;table-layout: fixed ; font-size: 10pt ; font-family: &amp;quot;arial&amp;quot; ; width: 0px ; border-collapse: collapse ; border: none&quot; cellspacing=&quot;0&quot; cellpadding=&quot;0&quot; border=&quot;1&quot;&gt;&lt;colgroup&gt;&lt;col width=&quot;100&quot;&gt;&lt;/colgroup&gt;&lt;tbody&gt;&lt;tr style=&quot;height: 21px&quot;&gt;&lt;td style=&quot;border-top: 1px solid #000000 ; border-right: 1px solid #000000 ; border-bottom: 1px solid #000000 ; border-left: 1px solid #000000 ; overflow: hidden ; padding: 2px 3px 2px 3px ; vertical-align: bottom ; font-weight: bold ; text-align: center&quot;&gt;Floorplan&lt;/td&gt;&lt;/tr&gt;&lt;tr style=&quot;height: 21px&quot;&gt;&lt;td style=&quot;overflow: hidden ; padding: 2px 3px 2px 3px ; vertical-align: bottom&quot;&gt;id&lt;/td&gt;&lt;/tr&gt;&lt;tr style=&quot;height: 21px&quot;&gt;&lt;td style=&quot;overflow: hidden ; padding: 2px 3px 2px 3px ; vertical-align: bottom&quot;&gt;floorId&lt;/td&gt;&lt;/tr&gt;&lt;tr style=&quot;height: 21px&quot;&gt;&lt;td style=&quot;overflow: hidden ; padding: 2px 3px 2px 3px ; vertical-align: bottom&quot;&gt;floor&lt;/td&gt;&lt;/tr&gt;&lt;tr style=&quot;height: 21px&quot;&gt;&lt;td style=&quot;overflow: hidden ; padding: 2px 3px 2px 3px ; vertical-align: bottom&quot;&gt;scale&lt;/td&gt;&lt;/tr&gt;&lt;tr style=&quot;height: 21px&quot;&gt;&lt;td style=&quot;overflow: hidden ; padding: 2px 3px 2px 3px ; vertical-align: bottom&quot;&gt;isScaleDefined&lt;/td&gt;&lt;/tr&gt;&lt;tr style=&quot;height: 21px&quot;&gt;&lt;td style=&quot;overflow: hidden ; padding: 2px 3px 2px 3px ; vertical-align: bottom&quot;&gt;floorplanBytes&lt;/td&gt;&lt;/tr&gt;&lt;tr style=&quot;height: 21px&quot;&gt;&lt;td style=&quot;overflow: hidden ; padding: 2px 3px 2px 3px ; vertical-align: bottom&quot;&gt;customer&lt;/td&gt;&lt;/tr&gt;&lt;tr style=&quot;height: 21px&quot;&gt;&lt;td style=&quot;overflow: hidden ; padding: 2px 3px 2px 3px ; vertical-align: bottom&quot;&gt;customerId&lt;/td&gt;&lt;/tr&gt;&lt;tr style=&quot;height: 21px&quot;&gt;&lt;td style=&quot;overflow: hidden ; padding: 2px 3px 2px 3px ; vertical-align: bottom&quot;&gt;widthPixels&lt;/td&gt;&lt;/tr&gt;&lt;tr style=&quot;height: 21px&quot;&gt;&lt;td style=&quot;overflow: hidden ; padding: 2px 3px 2px 3px ; vertical-align: bottom&quot;&gt;heightPixels&lt;/td&gt;&lt;/tr&gt;&lt;tr style=&quot;height: 21px&quot;&gt;&lt;td style=&quot;overflow: hidden ; padding: 2px 3px 2px 3px ; vertical-align: bottom&quot;&gt;startDate&lt;/td&gt;&lt;/tr&gt;&lt;tr style=&quot;height: 21px&quot;&gt;&lt;td style=&quot;overflow: hidden ; padding: 2px 3px 2px 3px ; vertical-align: bottom&quot;&gt;endDate&lt;/td&gt;&lt;/tr&gt;&lt;tr style=&quot;height: 21px&quot;&gt;&lt;td style=&quot;overflow: hidden ; padding: 2px 3px 2px 3px ; vertical-align: bottom&quot;&gt;created&lt;/td&gt;&lt;/tr&gt;&lt;tr style=&quot;height: 21px&quot;&gt;&lt;td style=&quot;overflow: hidden ; padding: 2px 3px 2px 3px ; vertical-align: bottom&quot;&gt;updated&lt;/td&gt;&lt;/tr&gt;&lt;tr style=&quot;height: 21px&quot;&gt;&lt;td style=&quot;overflow: hidden ; padding: 2px 3px 2px 3px ; vertical-align: bottom&quot;&gt;floorPlanUrl&lt;/td&gt;&lt;/tr&gt;&lt;/tbody&gt;&lt;/table&gt;" style="text;whiteSpace=wrap;html=1;" vertex="1" parent="1">
          <mxGeometry x="840" y="450" width="100" height="350" as="geometry" />
        </mxCell>
        <mxCell id="wimU3H7NXZCb9OBvoZlh-8" value="&lt;table dir=&quot;ltr&quot; style=&quot;table-layout: fixed ; font-size: 10pt ; font-family: &amp;quot;arial&amp;quot; ; width: 0px ; border-collapse: collapse ; border: none&quot; cellspacing=&quot;0&quot; cellpadding=&quot;0&quot; border=&quot;1&quot;&gt;&lt;colgroup&gt;&lt;col width=&quot;133&quot;&gt;&lt;/colgroup&gt;&lt;tbody&gt;&lt;tr style=&quot;height: 21px&quot;&gt;&lt;td style=&quot;border-top: 1px solid #000000 ; border-right: 1px solid #000000 ; border-bottom: 1px solid #000000 ; border-left: 1px solid #000000 ; overflow: hidden ; padding: 2px 3px 2px 3px ; vertical-align: bottom ; font-weight: bold ; text-align: center&quot;&gt;Location&lt;/td&gt;&lt;/tr&gt;&lt;tr style=&quot;height: 21px&quot;&gt;&lt;td style=&quot;overflow: hidden ; padding: 2px 3px 2px 3px ; vertical-align: bottom&quot;&gt;id&lt;/td&gt;&lt;/tr&gt;&lt;tr style=&quot;height: 21px&quot;&gt;&lt;td style=&quot;overflow: hidden ; padding: 2px 3px 2px 3px ; vertical-align: bottom&quot;&gt;name&lt;/td&gt;&lt;/tr&gt;&lt;tr style=&quot;height: 21px&quot;&gt;&lt;td style=&quot;overflow: hidden ; padding: 2px 3px 2px 3px ; vertical-align: bottom&quot;&gt;floors&lt;/td&gt;&lt;/tr&gt;&lt;tr style=&quot;height: 21px&quot;&gt;&lt;td style=&quot;overflow: hidden ; padding: 2px 3px 2px 3px ; vertical-align: bottom&quot;&gt;customer&lt;/td&gt;&lt;/tr&gt;&lt;tr style=&quot;height: 21px&quot;&gt;&lt;td style=&quot;overflow: hidden ; padding: 2px 3px 2px 3px ; vertical-align: bottom&quot;&gt;customerId&lt;/td&gt;&lt;/tr&gt;&lt;tr style=&quot;height: 21px&quot;&gt;&lt;td style=&quot;overflow: hidden ; padding: 2px 3px 2px 3px ; vertical-align: bottom&quot;&gt;weekActiveTimeRules&lt;/td&gt;&lt;/tr&gt;&lt;tr style=&quot;height: 21px&quot;&gt;&lt;td style=&quot;overflow: hidden ; padding: 2px 3px 2px 3px ; vertical-align: bottom&quot;&gt;dateActiveTimeRules&lt;/td&gt;&lt;/tr&gt;&lt;tr style=&quot;height: 21px&quot;&gt;&lt;td style=&quot;overflow: hidden ; padding: 2px 3px 2px 3px ; vertical-align: bottom&quot;&gt;address&lt;/td&gt;&lt;/tr&gt;&lt;tr style=&quot;height: 21px&quot;&gt;&lt;td style=&quot;overflow: hidden ; padding: 2px 3px 2px 3px ; vertical-align: bottom&quot;&gt;stateId&lt;/td&gt;&lt;/tr&gt;&lt;tr style=&quot;height: 21px&quot;&gt;&lt;td style=&quot;overflow: hidden ; padding: 2px 3px 2px 3px ; vertical-align: bottom&quot;&gt;state&lt;/td&gt;&lt;/tr&gt;&lt;tr style=&quot;height: 21px&quot;&gt;&lt;td style=&quot;overflow: hidden ; padding: 2px 3px 2px 3px ; vertical-align: bottom&quot;&gt;latitude&lt;/td&gt;&lt;/tr&gt;&lt;tr style=&quot;height: 21px&quot;&gt;&lt;td style=&quot;overflow: hidden ; padding: 2px 3px 2px 3px ; vertical-align: bottom&quot;&gt;longitude&lt;/td&gt;&lt;/tr&gt;&lt;tr style=&quot;height: 21px&quot;&gt;&lt;td style=&quot;overflow: hidden ; padding: 2px 3px 2px 3px ; vertical-align: bottom&quot;&gt;created&lt;/td&gt;&lt;/tr&gt;&lt;tr style=&quot;height: 21px&quot;&gt;&lt;td style=&quot;overflow: hidden ; padding: 2px 3px 2px 3px ; vertical-align: bottom&quot;&gt;updated&lt;/td&gt;&lt;/tr&gt;&lt;tr style=&quot;height: 21px&quot;&gt;&lt;td style=&quot;overflow: hidden ; padding: 2px 3px 2px 3px ; vertical-align: bottom&quot;&gt;deleted&lt;/td&gt;&lt;/tr&gt;&lt;tr style=&quot;height: 21px&quot;&gt;&lt;td style=&quot;overflow: hidden ; padding: 2px 3px 2px 3px ; vertical-align: bottom&quot;&gt;timezone&lt;/td&gt;&lt;/tr&gt;&lt;tr style=&quot;height: 21px&quot;&gt;&lt;td style=&quot;overflow: hidden ; padding: 2px 3px 2px 3px ; vertical-align: bottom&quot;&gt;country&lt;/td&gt;&lt;/tr&gt;&lt;tr style=&quot;height: 21px&quot;&gt;&lt;td style=&quot;overflow: hidden ; padding: 2px 3px 2px 3px ; vertical-align: bottom&quot;&gt;totalFloors&lt;/td&gt;&lt;/tr&gt;&lt;/tbody&gt;&lt;/table&gt;" style="text;whiteSpace=wrap;html=1;" vertex="1" parent="1">
          <mxGeometry x="560" y="370" width="130" height="420" as="geometry" />
        </mxCell>
        <mxCell id="wimU3H7NXZCb9OBvoZlh-9" value="&lt;table dir=&quot;ltr&quot; style=&quot;table-layout: fixed ; font-size: 10pt ; font-family: &amp;quot;arial&amp;quot; ; width: 0px ; border-collapse: collapse ; border: none&quot; cellspacing=&quot;0&quot; cellpadding=&quot;0&quot; border=&quot;1&quot;&gt;&lt;colgroup&gt;&lt;col width=&quot;136&quot;&gt;&lt;/colgroup&gt;&lt;tbody&gt;&lt;tr style=&quot;height: 21px&quot;&gt;&lt;td style=&quot;border-top: 1px solid #000000 ; border-right: 1px solid #000000 ; border-bottom: 1px solid #000000 ; border-left: 1px solid #000000 ; overflow: hidden ; padding: 2px 3px 2px 3px ; vertical-align: bottom ; font-weight: bold ; text-align: center&quot;&gt;Customer&lt;/td&gt;&lt;/tr&gt;&lt;tr style=&quot;height: 21px&quot;&gt;&lt;td style=&quot;overflow: hidden ; padding: 2px 3px 2px 3px ; vertical-align: bottom&quot;&gt;id&lt;/td&gt;&lt;/tr&gt;&lt;tr style=&quot;height: 21px&quot;&gt;&lt;td style=&quot;overflow: hidden ; padding: 2px 3px 2px 3px ; vertical-align: bottom&quot;&gt;name&lt;/td&gt;&lt;/tr&gt;&lt;tr style=&quot;height: 21px&quot;&gt;&lt;td style=&quot;overflow: hidden ; padding: 2px 3px 2px 3px ; vertical-align: bottom&quot;&gt;logo&lt;/td&gt;&lt;/tr&gt;&lt;tr style=&quot;height: 21px&quot;&gt;&lt;td style=&quot;overflow: hidden ; padding: 2px 3px 2px 3px ; vertical-align: bottom ; background-color: #ffffff&quot;&gt;enableLiveDashboards&lt;/td&gt;&lt;/tr&gt;&lt;tr style=&quot;height: 21px&quot;&gt;&lt;td style=&quot;overflow: hidden ; padding: 2px 3px 2px 3px ; vertical-align: bottom ; background-color: #ffffff&quot;&gt;enableWebhooks&lt;/td&gt;&lt;/tr&gt;&lt;tr style=&quot;height: 21px&quot;&gt;&lt;td style=&quot;overflow: hidden ; padding: 2px 3px 2px 3px ; vertical-align: bottom ; background-color: #ffffff&quot;&gt;enableSso&lt;/td&gt;&lt;/tr&gt;&lt;tr style=&quot;height: 21px&quot;&gt;&lt;td style=&quot;overflow: hidden ; padding: 2px 3px 2px 3px ; vertical-align: bottom ; background-color: #ffffff&quot;&gt;defaultSsoClaims&lt;/td&gt;&lt;/tr&gt;&lt;tr style=&quot;height: 21px&quot;&gt;&lt;td style=&quot;overflow: hidden ; padding: 2px 3px 2px 3px ; vertical-align: bottom ; background-color: #ffffff&quot;&gt;ssoProviderName&lt;/td&gt;&lt;/tr&gt;&lt;tr style=&quot;height: 21px&quot;&gt;&lt;td style=&quot;overflow: hidden ; padding: 2px 3px 2px 3px ; vertical-align: bottom ; background-color: #ffffff&quot;&gt;signInDisplayName&lt;/td&gt;&lt;/tr&gt;&lt;tr style=&quot;height: 21px&quot;&gt;&lt;td style=&quot;overflow: hidden ; padding: 2px 3px 2px 3px ; vertical-align: bottom&quot;&gt;ssoClientId&lt;/td&gt;&lt;/tr&gt;&lt;tr style=&quot;height: 21px&quot;&gt;&lt;td style=&quot;overflow: hidden ; padding: 2px 3px 2px 3px ; vertical-align: bottom&quot;&gt;userDomains&lt;/td&gt;&lt;/tr&gt;&lt;tr style=&quot;height: 21px&quot;&gt;&lt;td style=&quot;overflow: hidden ; padding: 2px 3px 2px 3px ; vertical-align: bottom&quot;&gt;weekActiveTimeRules&lt;/td&gt;&lt;/tr&gt;&lt;tr style=&quot;height: 21px&quot;&gt;&lt;td style=&quot;overflow: hidden ; padding: 2px 3px 2px 3px ; vertical-align: bottom&quot;&gt;dateActiveTimeRules&lt;/td&gt;&lt;/tr&gt;&lt;tr style=&quot;height: 21px&quot;&gt;&lt;td style=&quot;overflow: hidden ; padding: 2px 3px 2px 3px ; vertical-align: bottom&quot;&gt;floors&lt;/td&gt;&lt;/tr&gt;&lt;tr style=&quot;height: 21px&quot;&gt;&lt;td style=&quot;overflow: hidden ; padding: 2px 3px 2px 3px ; vertical-align: bottom&quot;&gt;locations&lt;/td&gt;&lt;/tr&gt;&lt;tr style=&quot;height: 21px&quot;&gt;&lt;td style=&quot;overflow: hidden ; padding: 2px 3px 2px 3px ; vertical-align: bottom&quot;&gt;overrideSettings&lt;/td&gt;&lt;/tr&gt;&lt;tr style=&quot;height: 21px&quot;&gt;&lt;td style=&quot;overflow: hidden ; padding: 2px 3px 2px 3px ; vertical-align: bottom&quot;&gt;created&lt;/td&gt;&lt;/tr&gt;&lt;tr style=&quot;height: 21px&quot;&gt;&lt;td style=&quot;overflow: hidden ; padding: 2px 3px 2px 3px ; vertical-align: bottom&quot;&gt;updated&lt;/td&gt;&lt;/tr&gt;&lt;tr style=&quot;height: 21px&quot;&gt;&lt;td style=&quot;overflow: hidden ; padding: 2px 3px 2px 3px ; vertical-align: bottom&quot;&gt;deleted&lt;/td&gt;&lt;/tr&gt;&lt;/tbody&gt;&lt;/table&gt;" style="text;whiteSpace=wrap;html=1;" vertex="1" parent="1">
          <mxGeometry x="1010" y="40" width="160" height="440" as="geometry" />
        </mxCell>
        <mxCell id="wimU3H7NXZCb9OBvoZlh-23" value="" style="edgeStyle=entityRelationEdgeStyle;fontSize=12;html=1;endArrow=ERmandOne;startArrow=ERmandOne;rounded=0;exitX=1.003;exitY=0.105;exitDx=0;exitDy=0;exitPerimeter=0;entryX=-0.008;entryY=0.112;entryDx=0;entryDy=0;entryPerimeter=0;" edge="1" parent="1" source="wimU3H7NXZCb9OBvoZlh-6" target="wimU3H7NXZCb9OBvoZlh-7">
          <mxGeometry width="100" height="100" relative="1" as="geometry">
            <mxPoint x="470" y="230" as="sourcePoint" />
            <mxPoint x="570" y="130" as="targetPoint" />
          </mxGeometry>
        </mxCell>
        <mxCell id="wimU3H7NXZCb9OBvoZlh-25" value="" style="edgeStyle=entityRelationEdgeStyle;fontSize=12;html=1;endArrow=ERmandOne;startArrow=ERmandOne;rounded=0;exitX=1.025;exitY=0.169;exitDx=0;exitDy=0;exitPerimeter=0;entryX=0.011;entryY=0.091;entryDx=0;entryDy=0;entryPerimeter=0;" edge="1" parent="1" source="wimU3H7NXZCb9OBvoZlh-6" target="wimU3H7NXZCb9OBvoZlh-9">
          <mxGeometry width="100" height="100" relative="1" as="geometry">
            <mxPoint x="500" y="280" as="sourcePoint" />
            <mxPoint x="600" y="180" as="targetPoint" />
          </mxGeometry>
        </mxCell>
        <mxCell id="wimU3H7NXZCb9OBvoZlh-26" value="" style="edgeStyle=entityRelationEdgeStyle;fontSize=12;html=1;endArrow=ERmandOne;startArrow=ERmandOne;rounded=0;exitX=1.03;exitY=0.211;exitDx=0;exitDy=0;exitPerimeter=0;entryX=0.024;entryY=0.094;entryDx=0;entryDy=0;entryPerimeter=0;" edge="1" parent="1" source="wimU3H7NXZCb9OBvoZlh-6" target="wimU3H7NXZCb9OBvoZlh-8">
          <mxGeometry width="100" height="100" relative="1" as="geometry">
            <mxPoint x="530" y="360" as="sourcePoint" />
            <mxPoint x="630" y="260" as="targetPoint" />
          </mxGeometry>
        </mxCell>
        <mxCell id="wimU3H7NXZCb9OBvoZlh-28" value="" style="edgeStyle=entityRelationEdgeStyle;fontSize=12;html=1;endArrow=ERoneToMany;startArrow=ERmandOne;rounded=0;entryX=1.013;entryY=0.038;entryDx=0;entryDy=0;entryPerimeter=0;exitX=0.025;exitY=0.196;exitDx=0;exitDy=0;exitPerimeter=0;" edge="1" parent="1" source="wimU3H7NXZCb9OBvoZlh-8" target="wimU3H7NXZCb9OBvoZlh-6">
          <mxGeometry width="100" height="100" relative="1" as="geometry">
            <mxPoint x="520" y="230" as="sourcePoint" />
            <mxPoint x="620" y="330" as="targetPoint" />
          </mxGeometry>
        </mxCell>
        <mxCell id="wimU3H7NXZCb9OBvoZlh-29" value="" style="edgeStyle=entityRelationEdgeStyle;fontSize=12;html=1;endArrow=ERmandOne;startArrow=ERmandOne;rounded=0;exitX=1.048;exitY=0.248;exitDx=0;exitDy=0;exitPerimeter=0;entryX=-0.012;entryY=0.109;entryDx=0;entryDy=0;entryPerimeter=0;" edge="1" parent="1" source="wimU3H7NXZCb9OBvoZlh-8" target="wimU3H7NXZCb9OBvoZlh-9">
          <mxGeometry width="100" height="100" relative="1" as="geometry">
            <mxPoint x="680" y="470" as="sourcePoint" />
            <mxPoint x="1050" y="230" as="targetPoint" />
          </mxGeometry>
        </mxCell>
        <mxCell id="wimU3H7NXZCb9OBvoZlh-30" value="" style="edgeStyle=entityRelationEdgeStyle;fontSize=12;html=1;endArrow=ERmandOne;startArrow=ERmandOne;rounded=0;exitX=0.011;exitY=0.233;exitDx=0;exitDy=0;exitPerimeter=0;entryX=1.013;entryY=0.047;entryDx=0;entryDy=0;entryPerimeter=0;" edge="1" parent="1" source="wimU3H7NXZCb9OBvoZlh-7" target="wimU3H7NXZCb9OBvoZlh-6">
          <mxGeometry width="100" height="100" relative="1" as="geometry">
            <mxPoint x="640" y="350" as="sourcePoint" />
            <mxPoint x="740" y="250" as="targetPoint" />
          </mxGeometry>
        </mxCell>
        <mxCell id="wimU3H7NXZCb9OBvoZlh-31" value="" style="edgeStyle=entityRelationEdgeStyle;fontSize=12;html=1;endArrow=ERoneToMany;rounded=0;exitX=0.012;exitY=0.711;exitDx=0;exitDy=0;exitPerimeter=0;entryX=1.017;entryY=0.023;entryDx=0;entryDy=0;entryPerimeter=0;" edge="1" parent="1" source="wimU3H7NXZCb9OBvoZlh-9" target="wimU3H7NXZCb9OBvoZlh-6">
          <mxGeometry width="100" height="100" relative="1" as="geometry">
            <mxPoint x="760" y="300" as="sourcePoint" />
            <mxPoint x="860" y="200" as="targetPoint" />
          </mxGeometry>
        </mxCell>
        <mxCell id="wimU3H7NXZCb9OBvoZlh-35" value="" style="edgeStyle=entityRelationEdgeStyle;fontSize=12;html=1;endArrow=ERoneToMany;startArrow=ERmandOne;rounded=0;exitX=0;exitY=0.75;exitDx=0;exitDy=0;entryX=1.055;entryY=0.095;entryDx=0;entryDy=0;entryPerimeter=0;" edge="1" parent="1" source="wimU3H7NXZCb9OBvoZlh-9" target="wimU3H7NXZCb9OBvoZlh-8">
          <mxGeometry width="100" height="100" relative="1" as="geometry">
            <mxPoint x="710" y="320" as="sourcePoint" />
            <mxPoint x="810" y="220" as="targetPoint" />
          </mxGeometry>
        </mxCell>
      </root>
    </mxGraphModel>
  </diagram>
</mxfile>
